<mxfile host="app.diagrams.net" agent="Mozilla/5.0 (Windows NT 10.0; Win64; x64) AppleWebKit/537.36 (KHTML, like Gecko) Chrome/140.0.0.0 Safari/537.36 Edg/140.0.0.0" version="28.2.3">
  <diagram name="Page-1" id="8lop9mbTBptmbCOHFbUk">
    <mxGraphModel dx="1728" dy="2048" grid="1" gridSize="10" guides="1" tooltips="1" connect="1" arrows="1" fold="1" page="1" pageScale="1" pageWidth="850" pageHeight="1100" math="0" shadow="0">
      <root>
        <mxCell id="0" />
        <mxCell id="1" parent="0" />
        <mxCell id="j6mCsnOZmpZlfRfWQeNy-1" value="manager" style="shape=umlActor;verticalLabelPosition=bottom;verticalAlign=top;html=1;outlineConnect=0;" parent="1" vertex="1">
          <mxGeometry x="160" y="90" width="30" height="60" as="geometry" />
        </mxCell>
        <mxCell id="j6mCsnOZmpZlfRfWQeNy-4" value="mục đích : quản lý,giám sát&amp;nbsp;" style="text;html=1;align=center;verticalAlign=middle;whiteSpace=wrap;rounded=0;" parent="1" vertex="1">
          <mxGeometry x="60" y="-20" width="250" height="30" as="geometry" />
        </mxCell>
        <mxCell id="j6mCsnOZmpZlfRfWQeNy-5" value="nhận báo cáo,cảnh báo về chất lượng cuộc gọi" style="text;html=1;align=center;verticalAlign=middle;whiteSpace=wrap;rounded=0;" parent="1" vertex="1">
          <mxGeometry x="60" y="30" width="240" height="30" as="geometry" />
        </mxCell>
        <mxCell id="wwguCVhyqI7P74i2e9lX-7" value="Agent" style="shape=umlActor;verticalLabelPosition=bottom;verticalAlign=top;html=1;" parent="1" vertex="1">
          <mxGeometry x="90" y="1160" width="30" height="60" as="geometry" />
        </mxCell>
        <mxCell id="wwguCVhyqI7P74i2e9lX-8" value="" style="endArrow=classic;html=1;rounded=0;entryX=0;entryY=0.5;entryDx=0;entryDy=0;" parent="1" target="wwguCVhyqI7P74i2e9lX-9" edge="1">
          <mxGeometry width="50" height="50" relative="1" as="geometry">
            <mxPoint x="130" y="1200" as="sourcePoint" />
            <mxPoint x="250" y="1160" as="targetPoint" />
          </mxGeometry>
        </mxCell>
        <mxCell id="wwguCVhyqI7P74i2e9lX-9" value="nhận cuộc gọi" style="ellipse;whiteSpace=wrap;html=1;" parent="1" vertex="1">
          <mxGeometry x="260" y="1110" width="120" height="80" as="geometry" />
        </mxCell>
        <mxCell id="wwguCVhyqI7P74i2e9lX-10" value="&lt;strong data-end=&quot;556&quot; data-start=&quot;530&quot;&gt;Được ghi âm và lưu trữ&lt;/strong&gt; &lt;em data-end=&quot;581&quot; data-start=&quot;557&quot;&gt;(tự động bởi hệ thống)&lt;/em&gt;" style="ellipse;whiteSpace=wrap;html=1;" parent="1" vertex="1">
          <mxGeometry x="270" y="1320" width="140" height="80" as="geometry" />
        </mxCell>
        <mxCell id="wwguCVhyqI7P74i2e9lX-11" value="" style="endArrow=classic;html=1;rounded=0;entryX=0.036;entryY=0.25;entryDx=0;entryDy=0;entryPerimeter=0;" parent="1" target="wwguCVhyqI7P74i2e9lX-10" edge="1">
          <mxGeometry width="50" height="50" relative="1" as="geometry">
            <mxPoint x="130" y="1200" as="sourcePoint" />
            <mxPoint x="260" y="1280" as="targetPoint" />
          </mxGeometry>
        </mxCell>
        <mxCell id="z1OoZFkHvm5yuNhwr093-1" value="customer" style="shape=umlActor;verticalLabelPosition=bottom;verticalAlign=top;html=1;outlineConnect=0;" parent="1" vertex="1">
          <mxGeometry x="80" y="1730" width="30" height="60" as="geometry" />
        </mxCell>
        <mxCell id="z1OoZFkHvm5yuNhwr093-2" value="&lt;strong data-end=&quot;743&quot; data-start=&quot;714&quot;&gt;Được chấm điểm chất lượng&lt;/strong&gt; &lt;em data-end=&quot;755&quot; data-start=&quot;744&quot;&gt;(tự động)&lt;/em&gt;" style="ellipse;whiteSpace=wrap;html=1;" parent="1" vertex="1">
          <mxGeometry x="260" y="1440" width="140" height="80" as="geometry" />
        </mxCell>
        <mxCell id="z1OoZFkHvm5yuNhwr093-3" value="Xem phản hồi/chấm điểm chất lượng" style="ellipse;whiteSpace=wrap;html=1;" parent="1" vertex="1">
          <mxGeometry x="260" y="1550" width="140" height="80" as="geometry" />
        </mxCell>
        <mxCell id="z1OoZFkHvm5yuNhwr093-4" value="" style="endArrow=classic;html=1;rounded=0;entryX=0.079;entryY=0.175;entryDx=0;entryDy=0;entryPerimeter=0;" parent="1" target="z1OoZFkHvm5yuNhwr093-2" edge="1">
          <mxGeometry width="50" height="50" relative="1" as="geometry">
            <mxPoint x="130" y="1200" as="sourcePoint" />
            <mxPoint x="260" y="1380" as="targetPoint" />
          </mxGeometry>
        </mxCell>
        <mxCell id="z1OoZFkHvm5yuNhwr093-5" value="" style="endArrow=classic;html=1;rounded=0;entryX=0.043;entryY=0.238;entryDx=0;entryDy=0;entryPerimeter=0;" parent="1" target="z1OoZFkHvm5yuNhwr093-3" edge="1">
          <mxGeometry width="50" height="50" relative="1" as="geometry">
            <mxPoint x="130" y="1200" as="sourcePoint" />
            <mxPoint x="270" y="1480" as="targetPoint" />
          </mxGeometry>
        </mxCell>
        <mxCell id="z1OoZFkHvm5yuNhwr093-7" value="include" style="html=1;verticalAlign=bottom;endArrow=open;dashed=1;endSize=8;curved=0;rounded=0;" parent="1" edge="1">
          <mxGeometry relative="1" as="geometry">
            <mxPoint x="380" y="1140.5" as="sourcePoint" />
            <mxPoint x="470" y="1130" as="targetPoint" />
          </mxGeometry>
        </mxCell>
        <mxCell id="z1OoZFkHvm5yuNhwr093-8" value="bắt đầu cuộc gọi" style="ellipse;whiteSpace=wrap;html=1;" parent="1" vertex="1">
          <mxGeometry x="470" y="1090" width="120" height="80" as="geometry" />
        </mxCell>
        <mxCell id="z1OoZFkHvm5yuNhwr093-9" value="kết thúc cuộc gọi" style="ellipse;whiteSpace=wrap;html=1;" parent="1" vertex="1">
          <mxGeometry x="470" y="1180" width="120" height="80" as="geometry" />
        </mxCell>
        <mxCell id="z1OoZFkHvm5yuNhwr093-10" value="include" style="html=1;verticalAlign=bottom;endArrow=open;dashed=1;endSize=8;curved=0;rounded=0;exitX=1.017;exitY=0.4;exitDx=0;exitDy=0;exitPerimeter=0;" parent="1" source="wwguCVhyqI7P74i2e9lX-9" edge="1">
          <mxGeometry x="-0.1139" y="9" relative="1" as="geometry">
            <mxPoint x="390" y="1210.5" as="sourcePoint" />
            <mxPoint x="480" y="1200" as="targetPoint" />
            <mxPoint as="offset" />
          </mxGeometry>
        </mxCell>
        <mxCell id="z1OoZFkHvm5yuNhwr093-13" value="gọi điện đến tổng đài" style="ellipse;whiteSpace=wrap;html=1;" parent="1" vertex="1">
          <mxGeometry x="270" y="1680" width="120" height="80" as="geometry" />
        </mxCell>
        <mxCell id="z1OoZFkHvm5yuNhwr093-14" value="include" style="html=1;verticalAlign=bottom;endArrow=open;dashed=1;endSize=8;curved=0;rounded=0;exitX=1.017;exitY=0.4;exitDx=0;exitDy=0;exitPerimeter=0;entryX=0;entryY=0.625;entryDx=0;entryDy=0;entryPerimeter=0;" parent="1" target="z1OoZFkHvm5yuNhwr093-13" edge="1">
          <mxGeometry x="-0.1139" y="9" relative="1" as="geometry">
            <mxPoint x="110" y="1750" as="sourcePoint" />
            <mxPoint x="208" y="1808" as="targetPoint" />
            <mxPoint as="offset" />
          </mxGeometry>
        </mxCell>
        <mxCell id="7Rzn0wOGkI3tUi_iNn5A-8" value="" style="whiteSpace=wrap;html=1;aspect=fixed;" parent="1" vertex="1">
          <mxGeometry x="250" y="-120" width="900" height="900" as="geometry" />
        </mxCell>
        <mxCell id="7Rzn0wOGkI3tUi_iNn5A-10" value="" style="endArrow=classic;html=1;rounded=0;entryX=0.217;entryY=0.874;entryDx=0;entryDy=0;entryPerimeter=0;" parent="1" target="7Rzn0wOGkI3tUi_iNn5A-14" edge="1">
          <mxGeometry width="50" height="50" relative="1" as="geometry">
            <mxPoint x="200" y="120" as="sourcePoint" />
            <mxPoint x="250" y="70" as="targetPoint" />
          </mxGeometry>
        </mxCell>
        <mxCell id="7Rzn0wOGkI3tUi_iNn5A-14" value="Quản lý ghi âm" style="ellipse;whiteSpace=wrap;html=1;" parent="1" vertex="1">
          <mxGeometry x="430" y="-120" width="120" height="80" as="geometry" />
        </mxCell>
        <mxCell id="7Rzn0wOGkI3tUi_iNn5A-19" value="check báo cáo cuộc gọi" style="ellipse;whiteSpace=wrap;html=1;" parent="1" vertex="1">
          <mxGeometry x="620" y="-90" width="120" height="80" as="geometry" />
        </mxCell>
        <mxCell id="Pd6pMWtdpp81vlcqEmeP-1" value="quản lý user và phân quyền" style="ellipse;whiteSpace=wrap;html=1;" vertex="1" parent="1">
          <mxGeometry x="950" y="270" width="120" height="80" as="geometry" />
        </mxCell>
        <mxCell id="Pd6pMWtdpp81vlcqEmeP-6" value="nhận cảnh báo" style="ellipse;whiteSpace=wrap;html=1;" vertex="1" parent="1">
          <mxGeometry x="780" y="-50" width="120" height="80" as="geometry" />
        </mxCell>
        <mxCell id="Pd6pMWtdpp81vlcqEmeP-7" value="cấu hình quy tắc chấm điểm" style="ellipse;whiteSpace=wrap;html=1;" vertex="1" parent="1">
          <mxGeometry x="950" y="30" width="120" height="80" as="geometry" />
        </mxCell>
        <mxCell id="Pd6pMWtdpp81vlcqEmeP-8" value="xem log hệ thống" style="ellipse;whiteSpace=wrap;html=1;" vertex="1" parent="1">
          <mxGeometry x="990" y="170" width="120" height="80" as="geometry" />
        </mxCell>
        <mxCell id="Pd6pMWtdpp81vlcqEmeP-9" value="quản lý cấu hình hệ thống" style="ellipse;whiteSpace=wrap;html=1;" vertex="1" parent="1">
          <mxGeometry x="930" y="370" width="120" height="80" as="geometry" />
        </mxCell>
        <mxCell id="Pd6pMWtdpp81vlcqEmeP-10" value="quản lý chuyển đổi văn bản" style="ellipse;whiteSpace=wrap;html=1;" vertex="1" parent="1">
          <mxGeometry x="920" y="470" width="120" height="110" as="geometry" />
        </mxCell>
        <mxCell id="Pd6pMWtdpp81vlcqEmeP-11" value="quản lý giám sát hệ thống" style="ellipse;whiteSpace=wrap;html=1;" vertex="1" parent="1">
          <mxGeometry x="750" y="570" width="120" height="80" as="geometry" />
        </mxCell>
        <mxCell id="Pd6pMWtdpp81vlcqEmeP-12" value="quản lý trích xuất thông tin" style="ellipse;whiteSpace=wrap;html=1;" vertex="1" parent="1">
          <mxGeometry x="690" y="660" width="120" height="80" as="geometry" />
        </mxCell>
        <mxCell id="Pd6pMWtdpp81vlcqEmeP-13" value="quản lý báo cáo và phân tích" style="ellipse;whiteSpace=wrap;html=1;" vertex="1" parent="1">
          <mxGeometry x="560" y="690" width="120" height="80" as="geometry" />
        </mxCell>
        <mxCell id="Pd6pMWtdpp81vlcqEmeP-14" value="quản lý tìm kiếm" style="ellipse;whiteSpace=wrap;html=1;" vertex="1" parent="1">
          <mxGeometry x="410" y="690" width="120" height="80" as="geometry" />
        </mxCell>
        <mxCell id="Pd6pMWtdpp81vlcqEmeP-15" value="quản lý tích hợp" style="ellipse;whiteSpace=wrap;html=1;" vertex="1" parent="1">
          <mxGeometry x="320" y="590" width="120" height="80" as="geometry" />
        </mxCell>
        <mxCell id="Pd6pMWtdpp81vlcqEmeP-18" value="" style="endArrow=classic;html=1;rounded=0;" edge="1" parent="1" target="7Rzn0wOGkI3tUi_iNn5A-19">
          <mxGeometry width="50" height="50" relative="1" as="geometry">
            <mxPoint x="200" y="120" as="sourcePoint" />
            <mxPoint x="458" y="20" as="targetPoint" />
          </mxGeometry>
        </mxCell>
        <mxCell id="Pd6pMWtdpp81vlcqEmeP-19" value="" style="endArrow=classic;html=1;rounded=0;" edge="1" parent="1">
          <mxGeometry width="50" height="50" relative="1" as="geometry">
            <mxPoint x="210" y="120" as="sourcePoint" />
            <mxPoint x="797" y="19" as="targetPoint" />
          </mxGeometry>
        </mxCell>
        <mxCell id="Pd6pMWtdpp81vlcqEmeP-20" value="" style="endArrow=classic;html=1;rounded=0;" edge="1" parent="1">
          <mxGeometry width="50" height="50" relative="1" as="geometry">
            <mxPoint x="210" y="120" as="sourcePoint" />
            <mxPoint x="967" y="90" as="targetPoint" />
          </mxGeometry>
        </mxCell>
        <mxCell id="Pd6pMWtdpp81vlcqEmeP-21" value="" style="endArrow=classic;html=1;rounded=0;" edge="1" parent="1">
          <mxGeometry width="50" height="50" relative="1" as="geometry">
            <mxPoint x="210" y="120" as="sourcePoint" />
            <mxPoint x="990" y="210" as="targetPoint" />
          </mxGeometry>
        </mxCell>
        <mxCell id="Pd6pMWtdpp81vlcqEmeP-22" value="" style="endArrow=classic;html=1;rounded=0;" edge="1" parent="1">
          <mxGeometry width="50" height="50" relative="1" as="geometry">
            <mxPoint x="210" y="120" as="sourcePoint" />
            <mxPoint x="950" y="310" as="targetPoint" />
          </mxGeometry>
        </mxCell>
        <mxCell id="Pd6pMWtdpp81vlcqEmeP-23" value="" style="endArrow=classic;html=1;rounded=0;" edge="1" parent="1">
          <mxGeometry width="50" height="50" relative="1" as="geometry">
            <mxPoint x="210" y="120" as="sourcePoint" />
            <mxPoint x="940" y="390" as="targetPoint" />
          </mxGeometry>
        </mxCell>
        <mxCell id="Pd6pMWtdpp81vlcqEmeP-24" value="" style="endArrow=classic;html=1;rounded=0;" edge="1" parent="1">
          <mxGeometry width="50" height="50" relative="1" as="geometry">
            <mxPoint x="210" y="120" as="sourcePoint" />
            <mxPoint x="930" y="500" as="targetPoint" />
          </mxGeometry>
        </mxCell>
        <mxCell id="Pd6pMWtdpp81vlcqEmeP-25" value="" style="endArrow=classic;html=1;rounded=0;" edge="1" parent="1">
          <mxGeometry width="50" height="50" relative="1" as="geometry">
            <mxPoint x="220" y="120" as="sourcePoint" />
            <mxPoint x="780" y="580" as="targetPoint" />
          </mxGeometry>
        </mxCell>
        <mxCell id="Pd6pMWtdpp81vlcqEmeP-26" value="" style="endArrow=classic;html=1;rounded=0;" edge="1" parent="1">
          <mxGeometry width="50" height="50" relative="1" as="geometry">
            <mxPoint x="210" y="120" as="sourcePoint" />
            <mxPoint x="710" y="670" as="targetPoint" />
          </mxGeometry>
        </mxCell>
        <mxCell id="Pd6pMWtdpp81vlcqEmeP-27" value="" style="endArrow=classic;html=1;rounded=0;" edge="1" parent="1">
          <mxGeometry width="50" height="50" relative="1" as="geometry">
            <mxPoint x="210" y="120" as="sourcePoint" />
            <mxPoint x="580" y="700" as="targetPoint" />
          </mxGeometry>
        </mxCell>
        <mxCell id="Pd6pMWtdpp81vlcqEmeP-28" value="" style="endArrow=classic;html=1;rounded=0;" edge="1" parent="1">
          <mxGeometry width="50" height="50" relative="1" as="geometry">
            <mxPoint x="210" y="120" as="sourcePoint" />
            <mxPoint x="505" y="700" as="targetPoint" />
          </mxGeometry>
        </mxCell>
        <mxCell id="Pd6pMWtdpp81vlcqEmeP-29" value="" style="endArrow=classic;html=1;rounded=0;" edge="1" parent="1">
          <mxGeometry width="50" height="50" relative="1" as="geometry">
            <mxPoint x="200" y="120" as="sourcePoint" />
            <mxPoint x="355" y="600" as="targetPoint" />
          </mxGeometry>
        </mxCell>
      </root>
    </mxGraphModel>
  </diagram>
</mxfile>
